M48
;Layer_Color=9474304
;FILE_FORMAT=2:5
INCH,LZ
;TYPE=PLATED
T1F00S00C0.00787
T2F00S00C0.03937
T3F00S00C0.04000
T4F00S00C0.11811
;TYPE=NON_PLATED
T5F00S00C0.03937
%
T01
X0041Y0022
X00435Y0054
X00335Y0052
X00295Y0049
X0028Y0056
X0056Y0054
X0059054Y0052
X0064Y0044
X0067525Y0043315
X00695Y0041
X0071Y0039
X0073Y00505
X00815Y0045
X0086
X009Y00505
X00935Y0051
X00955Y0048
X0058Y003
X00615Y0021
X0071081Y00615
X0078886Y0059886
X00935Y0063
X00955Y0065
X0097677Y0061677
X0100532Y0059742
X01035Y00625
X009325Y009775
X0094225Y01015
X0087Y0098
X0082Y0097
X0076Y0094
X0065Y0095581
X0062Y00915
X006Y0098
X0058866Y0085
X00615Y00715
X006Y01155
X0062Y0118
X007Y011
X00715Y0135547
Y01385
Y0141453
X0065Y01395
Y01375
X0078112Y0135455
X0078Y01435
X00845Y0144
X00885
X0088484Y0139484
X0084531Y0137516
X00975Y0115
X0109Y011
X0058Y0148
X0052Y0131
X0039Y0094
X00385Y00865
X00335Y00835
X0031395Y0083605
X0030701Y009004
X0028Y00995
X00315Y0074
X00335
X00325Y00635
X0035159Y006266
X0039Y0063
X0046
Y006
X00485Y00565
X00535
X005325Y0071
X0055843Y007
X00465Y0072
T02
X0038Y0127
T03
X00255Y01115
T04
X007874Y0019685
X0125984Y011811
T05
X0036Y00375
X0051
M30
